<svg width="453" height="154" xmlns="http://www.w3.org/2000/svg">

 <g>
  <title>background</title>
  <rect fill="none" id="canvas_background" height="402" width="582" y="-1" x="-1"/>
 </g>
 <g>
  <title>Layer 1</title>
  <path id="svg_1" fill="#f00" d="m120.199997,142.729996c36.753998,0 66.550003,-29.795998 66.550003,-66.550003c0,-36.755001 -29.796005,-66.550003 -66.550003,-66.550003c-36.754997,0 -66.550007,29.795002 -66.550007,66.550003c0,36.753998 29.795002,66.550003 66.550007,66.550003"/>
  <path id="svg_2" fill="#fff" d="m162.199997,89.57c10.173996,-23.748001 -0.830002,-51.25 -24.578995,-61.42c-23.748001,-10.174 -51.25,0.83 -61.420006,24.578001c-10.173996,23.747997 0.830002,51.249996 24.579002,61.420002c23.748001,10.174995 51.25,-0.829002 61.419998,-24.578003"/>
  <g id="svg_3" fill="#f00">
   <path id="svg_4" d="m109.290001,44.82c2.93,0 5.309998,-2.389999 5.309998,-5.310001c0,-2.929996 -2.389999,-5.309998 -5.309998,-5.309998c-2.93,0 -5.309998,2.389999 -5.309998,5.309998c0,2.93 2.389999,5.310001 5.309998,5.310001" fill-rule="evenodd"/>
   <path id="svg_5" d="m140.509995,56.5c5.039993,-1.194 8.149994,-6.243 6.955994,-11.278999c-1.194,-5.040001 -6.244003,-8.149002 -11.278992,-6.955002c-5.030014,1.194 -8.149002,6.243 -6.955002,11.278999c1.194,5.040001 6.242996,8.149002 11.278,6.955002"/>
   <g id="svg_6" fill-rule="evenodd">
    <path id="svg_7" d="m95.720001,82.150002c7.400002,0 13.440002,-6.040001 13.440002,-13.440002c0,-7.399998 -6.040001,-13.439999 -13.440002,-13.439999c-7.400002,0 -13.440002,6.040001 -13.440002,13.439999c0,7.400002 6.040001,13.440002 13.440002,13.440002"/>
    <path id="svg_8" d="m119.099998,109.709999c5.060005,0 9.189995,-4.129997 9.189995,-9.190002c0,-5.059998 -4.12999,-9.189995 -9.189995,-9.189995c-5.059998,0 -9.189995,4.129997 -9.189995,9.189995c0,5.07 4.119995,9.190002 9.189995,9.190002"/>
    <path id="svg_9" d="m21.290001,66.160004c-0.318001,0.556999 0.098,1.307999 0.769999,1.199997c9.75,-1.57 16.74,7.040001 8.49,16.260002c-8.099998,9.049995 -19.11,7.089996 -23.009999,5.989998c-0.615,-0.176003 -1.151,0.464996 -0.97,1.050003c3.49,11.279999 25,23.139999 35.799999,24.32c0,0.979996 -1.689999,4.459999 -3.369999,6.229996c-0.352001,0.371002 -0.289001,1.010002 0.16,1.270004c1.549999,0.899994 17.189999,5.620003 28.59,9.129997c0.903999,0.287003 1.606003,-0.888 0.910004,-1.539993c-24.660004,-24.070007 -30.660004,-62.070007 -10.550003,-93.010006c0.318001,-0.726002 -0.361,-1.567001 -1.139999,-1.280003c-12.400002,4.700001 -25.980001,13.66 -35.68,30.380005"/>
   </g>
  </g>
  <path id="svg_12" fill="#f00" d="m152.210007,77.07c-3.369995,4.519997 -11.139999,9.239998 -4.440002,13.360001c6.910004,3.739998 7.12001,-5.340004 9.350006,-10.519997c0.800995,0.800995 1.244995,2.167 1.779999,3.149994c5.080002,7.840004 14.720001,-8.579994 2.199997,-15.729996c-12.449997,-7.260002 -21.849991,9.290001 -12.519989,9.769997c1.146988,-0.028999 2.500992,-0.291 3.62999,-0.029999"/>
  <text xml:space="preserve" text-anchor="start" font-family="Helvetica, Arial, sans-serif" font-size="24" id="svg_13" y="17.4375" x="230" fill-opacity="null" stroke-opacity="null" stroke-width="0" stroke="null" fill="#000000"/>
  <text font-weight="bold" xml:space="preserve" text-anchor="start" font-family="'Times New Roman', Times, serif" font-size="63" id="svg_15" y="63.4375" x="220" fill-opacity="null" stroke-opacity="null" stroke-width="0" stroke="null" fill="#000000">Марк</text>
  <text font-weight="bold" xml:space="preserve" text-anchor="start" font-family="'Times New Roman', Times, serif" font-size="63" id="svg_16" y="123.4375" x="221" fill-opacity="null" stroke-opacity="null" stroke-width="0" stroke="null" fill="#000000">Пицца</text>
 </g>
</svg>