<svg width="1091" height="318" viewBox="0 0 1091 318" fill="none" xmlns="http://www.w3.org/2000/svg">
<g clip-path="url(#clip0)">
<path d="M1052.1 318H38.954C17.4752 318 0 300.901 0 279.883V38.1496C0 17.1125 17.4752 -0.000274658 38.954 -0.000274658H1052.1C1073.55 -0.000274658 1091 17.1125 1091 38.1496V279.883C1091 300.901 1073.55 318 1052.1 318Z" fill="black"/>
<path d="M210.611 35.1828C208.957 36.873 208 39.5044 208 42.9122V164.467C208 167.874 208.957 170.506 210.611 172.196L211.019 172.567L280.784 104.479V102.872L211.019 34.7843L210.611 35.1828Z" fill="url(#paint0_linear)"/>
<path d="M304.013 127.187L280.783 104.479V102.872L304.041 80.1644L304.562 80.4598L332.105 95.7606C339.965 100.103 339.965 107.248 332.105 111.618L304.562 126.891L304.013 127.187V127.187Z" fill="url(#paint1_linear)"/>
<path d="M304.562 126.891L280.783 103.676L210.61 172.196C213.221 174.876 217.478 175.198 222.32 172.519L304.562 126.891" fill="url(#paint2_linear)"/>
<path d="M304.562 80.4596L222.32 34.8321C217.478 32.18 213.221 32.503 210.61 35.1825L280.783 103.675L304.562 80.4596Z" fill="url(#paint3_linear)"/>
<path d="M195.425 223.488C183.512 223.488 173.78 232.409 173.78 244.718C173.78 256.927 183.512 265.941 195.425 265.941C207.363 265.941 217.094 256.927 217.094 244.718C217.094 232.409 207.363 223.488 195.425 223.488ZM195.425 257.582C188.888 257.582 183.265 252.273 183.265 244.718C183.265 237.063 188.888 231.848 195.425 231.848C201.961 231.848 207.61 237.063 207.61 244.718C207.61 252.273 201.961 257.582 195.425 257.582ZM148.198 223.488C136.26 223.488 126.554 232.409 126.554 244.718C126.554 256.927 136.26 265.941 148.198 265.941C160.13 265.941 169.843 256.927 169.843 244.718C169.843 232.409 160.13 223.488 148.198 223.488ZM148.198 257.582C141.655 257.582 136.013 252.273 136.013 244.718C136.013 237.063 141.655 231.848 148.198 231.848C154.735 231.848 160.358 237.063 160.358 244.718C160.358 252.273 154.735 257.582 148.198 257.582ZM92.0011 229.995V239.016H113.893C113.253 244.057 111.541 247.762 108.916 250.345C105.721 253.464 100.744 256.927 92.0011 256.927C78.5287 256.927 67.979 246.228 67.979 232.971C67.979 219.714 78.5287 209.015 92.0011 209.015C99.2857 209.015 104.586 211.816 108.498 215.447L114.958 209.09C109.487 203.949 102.208 200 92.0011 200C73.5265 200 58 214.792 58 232.971C58 251.15 73.5265 265.941 92.0011 265.941C101.986 265.941 109.487 262.722 115.383 256.683C121.425 250.738 123.308 242.378 123.308 235.628C123.308 233.532 123.13 231.604 122.813 229.995H92.0011ZM321.799 236.988C320.017 232.241 314.52 223.488 303.324 223.488C292.229 223.488 282.992 232.091 282.992 244.718C282.992 256.608 292.134 265.941 304.389 265.941C314.298 265.941 320.017 259.996 322.369 256.534L315.015 251.711C312.561 255.242 309.22 257.582 304.389 257.582C299.59 257.582 296.147 255.417 293.941 251.15L322.794 239.403L321.799 236.988ZM292.381 244.057C292.134 235.872 298.842 231.679 303.647 231.679C307.413 231.679 310.609 233.532 311.674 236.183L292.381 244.057ZM268.93 264.65H278.414V202.265H268.93V264.65ZM253.397 228.217H253.08C250.95 225.734 246.886 223.488 241.738 223.488C230.935 223.488 221.057 232.821 221.057 244.786C221.057 256.683 230.935 265.941 241.738 265.941C246.886 265.941 250.95 263.677 253.08 261.119H253.397V264.163C253.397 272.28 248.991 276.64 241.884 276.64C236.089 276.64 232.494 272.523 231.011 269.061L222.762 272.448C225.14 278.075 231.435 285 241.884 285C253.004 285 262.387 278.562 262.387 262.897V224.779H253.397V228.217ZM242.549 257.582C236.013 257.582 230.541 252.198 230.541 244.786C230.541 237.306 236.013 231.848 242.549 231.848C248.991 231.848 254.069 237.306 254.069 244.786C254.069 252.198 248.991 257.582 242.549 257.582ZM366.203 202.265H343.519V264.65H352.978V241.012H366.203C376.709 241.012 387.011 233.532 387.011 221.635C387.011 209.745 376.683 202.265 366.203 202.265ZM366.451 232.334H352.978V210.942H366.451C373.513 210.942 377.546 216.713 377.546 221.635C377.546 226.464 373.513 232.334 366.451 232.334ZM424.924 223.37C418.09 223.37 410.982 226.339 408.06 232.921L416.454 236.383C418.261 232.921 421.583 231.798 425.095 231.798C430.002 231.798 434.979 234.699 435.055 239.821V240.476C433.343 239.502 429.679 238.061 425.171 238.061C416.13 238.061 406.918 242.959 406.918 252.098C406.918 260.458 414.324 265.841 422.648 265.841C429.013 265.841 432.526 263.015 434.732 259.728H435.055V264.55H444.191V240.619C444.191 229.558 435.797 223.37 424.924 223.37ZM423.783 257.557C420.689 257.557 416.378 256.047 416.378 252.273C416.378 247.444 421.754 245.591 426.408 245.591C430.573 245.591 432.526 246.496 435.055 247.687C434.313 253.464 429.26 257.557 423.783 257.557ZM477.476 224.736L466.603 251.78H466.279L455.039 224.736H444.838L461.727 262.529L452.091 283.559H461.975L488 224.736H477.476ZM392.21 264.65H401.694V202.265H392.21V264.65Z" fill="white"/>
<line x1="547" y1="30" x2="546" y2="288" stroke="url(#paint4_linear)" stroke-width="2"/>
<path fill-rule="evenodd" clip-rule="evenodd" d="M850.283 33H788.673C759.627 33 749 43.6269 749 72.6729V134.327C749 163.373 759.627 174 788.673 174H850.283C879.329 174 889.97 163.373 889.97 134.327V72.6729C890 43.6269 879.373 33 850.283 33Z" fill="#B01630"/>
<path d="M776.918 103.5H780.658V121.949H776.918V114.453H768.473V121.949H764.733V103.5H768.473V110.921H776.918V103.5ZM797.994 114.053C797.994 117.021 796.51 118.654 793.808 118.654C791.107 118.654 789.593 117.021 789.593 113.889V103.5H785.853V114.038C785.853 119.218 788.732 122.186 793.749 122.186C798.766 122.186 801.734 119.218 801.734 113.875V103.5H797.994V114.053ZM841.214 116.175L837.029 103.5H833.956L829.8 116.19L825.719 103.5H821.741L828.168 121.949H831.27L835.44 109.838L839.626 121.949H842.758L849.184 103.5H845.296L841.214 116.175ZM855.878 113.993H862.691V110.654H855.878V106.884H865.763V103.5H852.197V121.904H866.119V118.58H855.878V113.993ZM870.572 121.904H874.267V103.5H870.572V121.904ZM809.125 118.09L807.448 121.919H803.634L811.693 103.5H814.988L823.077 121.919H819.218L817.63 118.105L809.125 118.09ZM810.521 114.765H816.146L813.326 108.175L810.521 114.765Z" fill="white"/>
<path d="M819.5 80.0346C813.278 80.0307 807.312 77.5572 802.912 73.1574C798.512 68.7577 796.039 62.7915 796.035 56.5693H799.344C799.344 61.9149 801.468 67.0415 805.248 70.8214C809.028 74.6013 814.154 76.7249 819.5 76.7249C824.846 76.7249 829.972 74.6013 833.752 70.8214C837.532 67.0415 839.656 61.9149 839.656 56.5693H842.965C842.961 62.7915 840.488 68.7577 836.088 73.1574C831.688 77.5572 825.722 80.0307 819.5 80.0346V80.0346Z" fill="white"/>
<path d="M652.933 249.749H629.697L624.835 263.838H614L636.659 203.325H646.012L668.712 263.838H657.836L652.933 249.749ZM632.622 241.27H650.008L641.315 216.167L632.622 241.27Z" fill="white"/>
<path d="M711.641 241.81C711.641 248.765 710.076 254.32 706.945 258.476C703.814 262.605 699.611 264.669 694.338 264.669C689.449 264.669 685.535 263.048 682.596 259.806V281.127H672.585V218.869H681.813L682.225 223.44C685.164 219.838 689.16 218.038 694.214 218.038C699.652 218.038 703.91 220.088 706.986 224.189C710.09 228.262 711.641 233.928 711.641 241.187V241.81ZM701.671 240.938C701.671 236.449 700.779 232.889 698.993 230.256C697.235 227.624 694.709 226.308 691.413 226.308C687.32 226.308 684.381 228.012 682.596 231.42V251.369C684.409 254.861 687.375 256.606 691.495 256.606C694.681 256.606 697.167 255.318 698.952 252.741C700.765 250.137 701.671 246.202 701.671 240.938Z" fill="white"/>
<path d="M759.185 241.81C759.185 248.765 757.619 254.32 754.488 258.476C751.357 262.605 747.155 264.669 741.881 264.669C736.992 264.669 733.078 263.048 730.14 259.806V281.127H720.128V218.869H729.357L729.769 223.44C732.708 219.838 736.704 218.038 741.758 218.038C747.196 218.038 751.453 220.088 754.529 224.189C757.633 228.262 759.185 233.928 759.185 241.187V241.81ZM749.215 240.938C749.215 236.449 748.322 232.889 746.537 230.256C744.779 227.624 742.252 226.308 738.956 226.308C734.864 226.308 731.925 228.012 730.14 231.42V251.369C731.952 254.861 734.919 256.606 739.039 256.606C742.225 256.606 744.71 255.318 746.496 252.741C748.308 250.137 749.215 246.202 749.215 240.938Z" fill="white"/>
<path d="M814.639 255.983C812.469 258.837 809.461 260.998 805.616 262.466C801.771 263.935 797.404 264.669 792.515 264.669C787.488 264.669 783.039 263.519 779.166 261.219C775.294 258.92 772.3 255.636 770.185 251.369C768.098 247.075 767.013 242.074 766.93 236.366V231.628C766.93 222.485 769.1 215.35 773.44 210.224C777.779 205.07 783.835 202.494 791.608 202.494C798.283 202.494 803.583 204.156 807.511 207.481C811.439 210.806 813.801 215.599 814.597 221.861H804.38C803.226 214.574 799.038 210.931 791.814 210.931C787.145 210.931 783.588 212.635 781.144 216.043C778.727 219.423 777.477 224.396 777.395 230.963V235.618C777.395 242.157 778.754 247.241 781.473 250.871C784.22 254.473 788.024 256.274 792.886 256.274C798.214 256.274 802.004 255.055 804.256 252.616V240.771H791.897V232.792H814.639V255.983Z" fill="white"/>
<path d="M851.759 263.838C851.319 262.979 850.935 261.58 850.605 259.64C847.419 262.993 843.519 264.669 838.905 264.669C834.428 264.669 830.775 263.381 827.946 260.804C825.117 258.227 823.702 255.041 823.702 251.245C823.702 246.451 825.46 242.78 828.976 240.231C832.519 237.654 837.573 236.366 844.137 236.366H850.276V233.415C850.276 231.088 849.63 229.231 848.339 227.846C847.048 226.433 845.084 225.726 842.448 225.726C840.168 225.726 838.3 226.308 836.845 227.472C835.389 228.608 834.661 230.063 834.661 231.836H824.65C824.65 229.37 825.46 227.07 827.081 224.937C828.701 222.775 830.898 221.085 833.672 219.866C836.474 218.647 839.591 218.038 843.025 218.038C848.243 218.038 852.404 219.367 855.508 222.027C858.611 224.66 860.204 228.372 860.287 233.166V253.448C860.287 257.493 860.85 260.721 861.976 263.131V263.838H851.759ZM840.759 256.565C842.736 256.565 844.59 256.08 846.32 255.11C848.078 254.14 849.397 252.838 850.276 251.203V242.725H844.879C841.171 242.725 838.383 243.376 836.515 244.678C834.647 245.98 833.714 247.823 833.714 250.206C833.714 252.145 834.345 253.697 835.609 254.861C836.9 255.997 838.616 256.565 840.759 256.565Z" fill="white"/>
<path d="M881.422 263.838H871.411V200H881.422V263.838Z" fill="white"/>
<path d="M903.01 263.838H892.999V200H903.01V263.838Z" fill="white"/>
<path d="M933.58 264.669C927.235 264.669 922.085 262.66 918.13 258.643C914.202 254.597 912.239 249.222 912.239 242.517V241.27C912.239 236.782 913.09 232.778 914.793 229.259C916.523 225.712 918.94 222.956 922.044 220.988C925.148 219.021 928.608 218.038 932.426 218.038C938.496 218.038 943.179 219.991 946.475 223.898C949.798 227.804 951.46 233.332 951.46 240.48V244.553H922.332C922.635 248.266 923.857 251.203 925.999 253.364C928.169 255.526 930.888 256.606 934.156 256.606C938.743 256.606 942.479 254.736 945.363 250.995L950.76 256.191C948.974 258.878 946.585 260.97 943.591 262.466C940.625 263.935 937.288 264.669 933.58 264.669ZM932.385 226.142C929.638 226.142 927.414 227.112 925.711 229.051C924.035 230.991 922.964 233.692 922.497 237.156H941.572V236.408C941.353 233.027 940.46 230.478 938.894 228.76C937.329 227.015 935.159 226.142 932.385 226.142Z" fill="white"/>
<path d="M982.606 228.095C981.288 227.874 979.928 227.763 978.528 227.763C973.941 227.763 970.851 229.536 969.258 233.083V263.838H959.247V218.869H968.805L969.052 223.898C971.469 219.991 974.82 218.038 979.104 218.038C980.533 218.038 981.714 218.231 982.648 218.619L982.606 228.095Z" fill="white"/>
<path d="M1005.27 249.375L1014.33 218.869H1025L1007.28 270.654C1004.57 278.218 999.951 282 993.442 282C991.986 282 990.379 281.751 988.621 281.252V273.438L990.517 273.563C993.043 273.563 994.939 273.092 996.202 272.15C997.493 271.236 998.509 269.684 999.251 267.495L1000.69 263.63L985.037 218.869H995.831L1005.27 249.375Z" fill="white"/>
</g>
<defs>
<linearGradient id="paint0_linear" x1="274.59" y1="165.732" x2="182.373" y2="71.2804" gradientUnits="userSpaceOnUse">
<stop stop-color="#00A0FF"/>
<stop offset="0.0066" stop-color="#00A1FF"/>
<stop offset="0.2601" stop-color="#00BEFF"/>
<stop offset="0.5122" stop-color="#00D2FF"/>
<stop offset="0.7604" stop-color="#00DFFF"/>
<stop offset="1" stop-color="#00E3FF"/>
</linearGradient>
<linearGradient id="paint1_linear" x1="342.34" y1="103.668" x2="206.12" y2="103.668" gradientUnits="userSpaceOnUse">
<stop stop-color="#FFE000"/>
<stop offset="0.4087" stop-color="#FFBD00"/>
<stop offset="0.7754" stop-color="#FFA500"/>
<stop offset="1" stop-color="#FF9C00"/>
</linearGradient>
<linearGradient id="paint2_linear" x1="291.632" y1="91.0553" x2="166.577" y2="-37.0293" gradientUnits="userSpaceOnUse">
<stop stop-color="#FF3A44"/>
<stop offset="1" stop-color="#C31162"/>
</linearGradient>
<linearGradient id="paint3_linear" x1="192.946" y1="212.636" x2="248.788" y2="155.441" gradientUnits="userSpaceOnUse">
<stop stop-color="#32A071"/>
<stop offset="0.0685" stop-color="#2DA771"/>
<stop offset="0.4762" stop-color="#15CF74"/>
<stop offset="0.8009" stop-color="#06E775"/>
<stop offset="1" stop-color="#00F076"/>
</linearGradient>
<linearGradient id="paint4_linear" x1="546" y1="288" x2="546" y2="30" gradientUnits="userSpaceOnUse">
<stop stop-color="white" stop-opacity="0"/>
<stop offset="0.518486" stop-color="white"/>
<stop offset="1" stop-color="white" stop-opacity="0"/>
</linearGradient>
<clipPath id="clip0">
<rect width="1091" height="318" fill="white"/>
</clipPath>
</defs>
</svg>
