<?xml version="1.0" encoding="UTF-8" standalone="no"?>
<svg
   xmlns:dc="http://purl.org/dc/elements/1.1/"
   xmlns:cc="http://creativecommons.org/ns#"
   xmlns:rdf="http://www.w3.org/1999/02/22-rdf-syntax-ns#"
   xmlns:svg="http://www.w3.org/2000/svg"
   xmlns="http://www.w3.org/2000/svg"
   xmlns:sodipodi="http://sodipodi.sourceforge.net/DTD/sodipodi-0.dtd"
   xmlns:inkscape="http://www.inkscape.org/namespaces/inkscape"
   viewBox="0 0 120 35"
   height="35"
   width="120"
   xml:space="preserve"
   id="svg2"
   version="1.1"
   sodipodi:docname="app-store.svg"
   inkscape:version="0.92.0 r15299"><sodipodi:namedview
     pagecolor="#ffffff"
     bordercolor="#666666"
     borderopacity="1"
     objecttolerance="10"
     gridtolerance="10"
     guidetolerance="10"
     inkscape:pageopacity="0"
     inkscape:pageshadow="2"
     inkscape:window-width="1920"
     inkscape:window-height="1017"
     id="namedview52"
     showgrid="false"
     fit-margin-top="0"
     fit-margin-left="0"
     fit-margin-right="0"
     fit-margin-bottom="0"
     inkscape:zoom="1.3837571"
     inkscape:cx="135.13933"
     inkscape:cy="38.780332"
     inkscape:window-x="-8"
     inkscape:window-y="-8"
     inkscape:window-maximized="1"
     inkscape:current-layer="svg2" /><metadata
     id="metadata8"><rdf:RDF><cc:Work
         rdf:about=""><dc:format>image/svg+xml</dc:format><dc:type
           rdf:resource="http://purl.org/dc/dcmitype/StillImage" /><dc:title></dc:title></cc:Work></rdf:RDF></metadata><defs
     id="defs6"><clipPath
       id="clipPath18"
       clipPathUnits="userSpaceOnUse"><path
         id="path16"
         d="M 0,58.171 H 202.709 V 0 H 0 Z"
         inkscape:connector-curvature="0" /></clipPath></defs><g
     transform="matrix(0.59198161,0,0,-0.60167748,0,35.000181)"
     id="g10"><g
       id="g12"><g
         clip-path="url(#clipPath18)"
         id="g14"><g
           transform="translate(202.709,5.8313)"
           id="g20"><path
             id="path22"
             style="fill:#181715;fill-opacity:1;fill-rule:nonzero;stroke:none"
             d="m 0,0 c 0,-3.222 -2.609,-5.831 -5.837,-5.831 h -191.027 c -3.227,0 -5.845,2.609 -5.845,5.831 v 46.501 c 0,3.22 2.618,5.839 5.845,5.839 H -5.839 c 3.23,0 5.838,-2.619 5.838,-5.839 L -0.001,0 Z"
             inkscape:connector-curvature="0" /></g><g
           transform="translate(44.5146,29.4056)"
           id="g24"><path
             id="path26"
             style="fill:#ffffff;fill-opacity:1;fill-rule:nonzero;stroke:none"
             d="m 0,0 c -0.045,4.907 4.017,7.294 4.203,7.406 -2.3,3.354 -5.866,3.813 -7.119,3.848 -2.995,0.315 -5.899,-1.792 -7.425,-1.792 -1.556,0 -3.906,1.761 -6.436,1.709 -3.258,-0.05 -6.307,-1.936 -7.978,-4.865 -3.45,-5.973 -0.877,-14.75 2.428,-19.578 1.653,-2.364 3.585,-5.005 6.113,-4.911 2.474,0.103 3.398,1.578 6.385,1.578 2.958,0 3.825,-1.578 6.405,-1.519 2.655,0.044 4.327,2.375 5.923,4.761 1.91,2.711 2.677,5.38 2.708,5.516 C 5.145,-7.826 0.051,-5.883 0,0"
             inkscape:connector-curvature="0" /></g><g
           transform="translate(39.6423,43.8351)"
           id="g28"><path
             id="path30"
             style="fill:#ffffff;fill-opacity:1;fill-rule:nonzero;stroke:none"
             d="M 0,0 C 1.33,1.665 2.241,3.928 1.988,6.226 0.062,6.141 -2.347,4.895 -3.733,3.266 -4.96,1.832 -6.057,-0.52 -5.773,-2.73 -3.61,-2.89 -1.389,-1.638 0,0"
             inkscape:connector-curvature="0" /></g><g
           transform="translate(74.3975,20.0096)"
           id="g32"><path
             id="path34"
             style="fill:#ffffff;fill-opacity:1;fill-rule:nonzero;stroke:none"
             d="m 0,0 -1.714,5.29 c -0.18,0.541 -0.521,1.814 -1.022,3.818 h -0.06 C -2.996,8.245 -3.317,6.973 -3.758,5.29 L -5.441,0 Z M 5.922,-8.448 H 2.465 l -1.894,5.952 h -6.583 l -1.804,-5.952 h -3.366 l 6.522,20.261 h 4.029 z"
             inkscape:connector-curvature="0" /></g><g
           transform="translate(93.7862,18.9273)"
           id="g36"><path
             id="path38"
             style="fill:#ffffff;fill-opacity:1;fill-rule:nonzero;stroke:none"
             d="M 0,0 C 0,1.421 -0.32,2.594 -0.962,3.516 -1.664,4.478 -2.606,4.96 -3.788,4.96 -4.589,4.96 -5.316,4.692 -5.967,4.163 -6.618,3.631 -7.044,2.935 -7.245,2.073 -7.345,1.671 -7.395,1.341 -7.395,1.082 v -2.435 c 0,-1.063 0.326,-1.96 0.977,-2.691 0.651,-0.732 1.498,-1.097 2.54,-1.097 1.223,0 2.175,0.471 2.856,1.412 C -0.341,-2.786 0,-1.543 0,0 m 3.307,0.119 c 0,-2.485 -0.672,-4.449 -2.014,-5.891 -1.203,-1.283 -2.696,-1.924 -4.479,-1.924 -1.924,0 -3.307,0.692 -4.148,2.074 h -0.061 v -7.695 h -3.246 V 2.434 c 0,1.563 -0.041,3.165 -0.12,4.81 h 2.855 l 0.181,-2.315 h 0.06 c 1.082,1.744 2.725,2.615 4.929,2.615 1.724,0 3.162,-0.681 4.314,-2.043 C 2.731,4.136 3.307,2.343 3.307,0.119"
             inkscape:connector-curvature="0" /></g><g
           transform="translate(110.5902,18.9273)"
           id="g40"><path
             id="path42"
             style="fill:#ffffff;fill-opacity:1;fill-rule:nonzero;stroke:none"
             d="M 0,0 C 0,1.421 -0.321,2.594 -0.963,3.516 -1.665,4.478 -2.605,4.96 -3.788,4.96 -4.591,4.96 -5.317,4.692 -5.968,4.163 -6.619,3.631 -7.044,2.935 -7.245,2.073 -7.344,1.671 -7.395,1.341 -7.395,1.082 v -2.435 c 0,-1.063 0.326,-1.96 0.975,-2.691 0.651,-0.732 1.499,-1.097 2.542,-1.097 1.223,0 2.174,0.471 2.855,1.412 C -0.342,-2.786 0,-1.543 0,0 m 3.307,0.119 c 0,-2.485 -0.672,-4.449 -2.016,-5.891 -1.202,-1.283 -2.694,-1.924 -4.479,-1.924 -1.924,0 -3.306,0.692 -4.147,2.074 h -0.06 v -7.695 h -3.246 V 2.434 c 0,1.563 -0.041,3.165 -0.12,4.81 h 2.855 l 0.181,-2.315 h 0.06 c 1.081,1.744 2.723,2.615 4.929,2.615 1.722,0 3.161,-0.681 4.315,-2.043 C 2.73,4.136 3.307,2.343 3.307,0.119"
             inkscape:connector-curvature="0" /></g><g
           transform="translate(132.6844,17.2426)"
           id="g44"><path
             id="path46"
             style="fill:#ffffff;fill-opacity:1;fill-rule:nonzero;stroke:none"
             d="m 0,0 c 0,-1.723 -0.598,-3.125 -1.799,-4.208 -1.32,-1.183 -3.158,-1.773 -5.519,-1.773 -2.18,0 -3.928,0.42 -5.252,1.262 l 0.753,2.706 c 1.424,-0.862 2.988,-1.294 4.692,-1.294 1.222,0 2.174,0.277 2.858,0.829 0.681,0.551 1.02,1.29 1.02,2.213 0,0.823 -0.28,1.515 -0.842,2.078 -0.559,0.561 -1.493,1.083 -2.795,1.567 -3.548,1.323 -5.32,3.26 -5.32,5.81 0,1.665 0.622,3.031 1.865,4.095 1.24,1.064 2.893,1.596 4.96,1.596 1.843,0 3.375,-0.321 4.597,-0.962 l -0.812,-2.646 c -1.142,0.621 -2.432,0.932 -3.878,0.932 -1.141,0 -2.033,-0.281 -2.673,-0.842 -0.541,-0.501 -0.812,-1.111 -0.812,-1.834 0,-0.801 0.31,-1.463 0.931,-1.983 C -7.485,7.064 -6.503,6.544 -5.079,5.981 -3.336,5.28 -2.055,4.459 -1.231,3.518 -0.41,2.575 0,1.402 0,0"
             inkscape:connector-curvature="0" /></g><g
           transform="translate(143.4162,23.7356)"
           id="g48"><path
             id="path50"
             style="fill:#ffffff;fill-opacity:1;fill-rule:nonzero;stroke:none"
             d="m 0,0 h -3.577 v -7.094 c 0,-1.803 0.63,-2.706 1.894,-2.706 0.58,0 1.062,0.051 1.442,0.151 l 0.089,-2.466 c -0.639,-0.239 -1.481,-0.359 -2.524,-0.359 -1.282,0 -2.284,0.391 -3.007,1.171 -0.719,0.782 -1.082,2.095 -1.082,3.939 V 0 h -2.132 v 2.435 h 2.132 v 2.676 l 3.188,0.962 V 2.435 H 0 Z"
             inkscape:connector-curvature="0" /></g><g
           transform="translate(156.1909,18.8811)"
           id="g52"><path
             id="path54"
             style="fill:#ffffff;fill-opacity:1;fill-rule:nonzero;stroke:none"
             d="m 0,0 c 0,1.347 -0.288,2.502 -0.871,3.467 -0.681,1.166 -1.654,1.749 -2.914,1.749 -1.306,0 -2.296,-0.583 -2.977,-1.749 -0.583,-0.965 -0.871,-2.139 -0.871,-3.528 0,-1.347 0.288,-2.502 0.871,-3.466 0.702,-1.165 1.683,-1.748 2.947,-1.748 1.24,0 2.212,0.593 2.914,1.778 C -0.3,-2.513 0,-1.346 0,0 m 3.369,0.105 c 0,-2.245 -0.642,-4.088 -1.924,-5.53 -1.344,-1.484 -3.128,-2.225 -5.352,-2.225 -2.144,0 -3.851,0.711 -5.124,2.134 -1.273,1.423 -1.909,3.217 -1.909,5.381 0,2.264 0.654,4.118 1.969,5.56 1.311,1.444 3.08,2.165 5.305,2.165 2.144,0 3.868,-0.71 5.171,-2.135 C 2.748,4.072 3.369,2.29 3.369,0.105"
             inkscape:connector-curvature="0" /></g><g
           transform="translate(170.1105,23.3163)"
           id="g56"><path
             id="path58"
             style="fill:#ffffff;fill-opacity:1;fill-rule:nonzero;stroke:none"
             d="m 0,0 c -0.321,0.06 -0.663,0.089 -1.023,0.089 -1.142,0 -2.025,-0.431 -2.647,-1.293 -0.541,-0.762 -0.811,-1.724 -0.811,-2.885 v -7.666 h -3.244 l 0.029,10.009 c 0,1.685 -0.041,3.218 -0.122,4.601 H -4.99 L -4.871,0.06 h 0.089 c 0.342,0.96 0.883,1.733 1.624,2.313 0.723,0.522 1.505,0.782 2.346,0.782 0.301,0 0.571,-0.021 0.812,-0.059 z"
             inkscape:connector-curvature="0" /></g><g
           transform="translate(181.5322,20.3992)"
           id="g60"><path
             id="path62"
             style="fill:#ffffff;fill-opacity:1;fill-rule:nonzero;stroke:none"
             d="m 0,0 c 0.021,0.962 -0.19,1.793 -0.63,2.495 -0.562,0.902 -1.425,1.353 -2.587,1.353 -1.062,0 -1.924,-0.44 -2.585,-1.323 C -6.343,1.823 -6.664,0.981 -6.762,0 Z m 3.096,-0.842 c 0,-0.581 -0.039,-1.072 -0.119,-1.472 h -9.739 c 0.039,-1.443 0.508,-2.546 1.413,-3.308 0.82,-0.681 1.882,-1.021 3.184,-1.021 1.442,0 2.757,0.23 3.94,0.691 l 0.509,-2.254 c -1.383,-0.602 -3.015,-0.902 -4.898,-0.902 -2.266,0 -4.044,0.666 -5.337,1.999 -1.291,1.333 -1.939,3.121 -1.939,5.366 0,2.204 0.6,4.039 1.805,5.502 1.261,1.562 2.965,2.343 5.108,2.343 2.106,0 3.7,-0.781 4.782,-2.343 0.859,-1.243 1.291,-2.778 1.291,-4.601"
             inkscape:connector-curvature="0" /></g><g
           transform="translate(64.7584,48.4525)"
           id="g64"><path
             id="path66"
             style="fill:#ffffff;fill-opacity:1;fill-rule:nonzero;stroke:none"
             d="m 0,0 c 0.345,0.207 0.736,0.381 1.175,0.524 0.437,0.143 0.951,0.214 1.543,0.214 0.954,0 1.707,-0.227 2.258,-0.679 0.552,-0.453 0.827,-1.063 0.827,-1.831 0,-0.611 -0.184,-1.123 -0.553,-1.536 C 4.881,-3.722 4.41,-3.997 3.839,-4.136 V -4.18 C 4.154,-4.229 4.453,-4.316 4.733,-4.438 5.014,-4.562 5.26,-4.726 5.472,-4.933 5.683,-5.14 5.851,-5.381 5.974,-5.657 6.096,-5.932 6.158,-6.237 6.158,-6.572 6.158,-7.123 6.047,-7.586 5.825,-7.961 5.604,-8.334 5.314,-8.64 4.954,-8.876 4.596,-9.112 4.194,-9.282 3.751,-9.386 3.308,-9.489 2.865,-9.541 2.422,-9.541 c -0.473,0 -0.941,0.05 -1.403,0.148 -0.463,0.098 -0.891,0.261 -1.285,0.488 l 0.398,1.226 c 0.256,-0.129 0.586,-0.252 0.991,-0.37 0.403,-0.118 0.811,-0.177 1.225,-0.177 0.679,0 1.204,0.152 1.573,0.457 0.369,0.306 0.554,0.714 0.554,1.226 0,0.345 -0.074,0.628 -0.221,0.849 -0.149,0.222 -0.341,0.396 -0.577,0.525 -0.236,0.128 -0.5,0.216 -0.79,0.265 -0.291,0.05 -0.578,0.075 -0.863,0.075 H 1.359 v 1.211 h 0.665 c 0.304,0 0.587,0.038 0.849,0.118 0.26,0.078 0.487,0.189 0.679,0.332 0.192,0.142 0.342,0.313 0.451,0.51 0.107,0.197 0.162,0.418 0.162,0.664 0,0.443 -0.158,0.79 -0.473,1.041 -0.315,0.251 -0.739,0.377 -1.27,0.377 -0.364,0 -0.729,-0.06 -1.093,-0.177 C 0.965,-0.871 0.639,-1 0.354,-1.137 Z"
             inkscape:connector-curvature="0" /></g><g
           transform="translate(77.2209,42.648)"
           id="g68"><path
             id="path70"
             style="fill:#ffffff;fill-opacity:1;fill-rule:nonzero;stroke:none"
             d="m 0,0 c -0.891,0 -1.554,-0.113 -1.989,-0.339 -0.436,-0.227 -0.653,-0.596 -0.653,-1.108 0,-0.374 0.102,-0.655 0.308,-0.842 0.205,-0.187 0.465,-0.28 0.779,-0.28 0.205,0 0.4,0.037 0.587,0.11 0.186,0.074 0.349,0.175 0.491,0.303 0.142,0.128 0.257,0.283 0.346,0.465 C -0.043,-1.508 0,-1.314 0,-1.107 Z M 0.222,-3.574 0.104,-2.747 H 0.059 c -0.481,-0.659 -1.18,-0.989 -2.096,-0.989 -0.326,0 -0.62,0.054 -0.886,0.162 -0.266,0.109 -0.498,0.256 -0.694,0.443 -0.198,0.187 -0.35,0.409 -0.458,0.665 -0.109,0.256 -0.162,0.537 -0.162,0.842 0,0.895 0.364,1.568 1.092,2.016 0.729,0.447 1.762,0.672 3.102,0.672 v 0.133 c 0,0.945 -0.497,1.417 -1.488,1.417 -0.708,0 -1.333,-0.177 -1.872,-0.531 l -0.325,1.048 c 0.659,0.414 1.48,0.62 2.463,0.62 1.878,0 2.816,-0.989 2.816,-2.968 v -2.644 c 0,-0.738 0.035,-1.309 0.104,-1.713 z"
             inkscape:connector-curvature="0" /></g><g
           transform="translate(86.4674,46.2519)"
           id="g72"><path
             id="path74"
             style="fill:#ffffff;fill-opacity:1;fill-rule:nonzero;stroke:none"
             d="M 0,0 V -1.314 H -2.984 V -7.178 H -4.578 V 0 Z"
             inkscape:connector-curvature="0" /></g><g
           transform="translate(93.9698,42.6926)"
           id="g76"><path
             id="path78"
             style="fill:#ffffff;fill-opacity:1;fill-rule:nonzero;stroke:none"
             d="m 0,0 c 0,0.355 -0.043,0.682 -0.126,0.982 -0.084,0.3 -0.207,0.556 -0.369,0.768 -0.162,0.212 -0.36,0.379 -0.59,0.503 -0.232,0.122 -0.491,0.184 -0.776,0.184 -0.227,0 -0.448,-0.05 -0.665,-0.148 C -2.743,2.191 -2.932,2.058 -3.094,1.89 -3.258,1.723 -3.387,1.521 -3.485,1.285 -3.585,1.049 -3.634,0.798 -3.634,0.531 v -1.196 c 0,-0.265 0.042,-0.512 0.127,-0.738 0.083,-0.227 0.2,-0.424 0.354,-0.591 0.153,-0.167 0.334,-0.298 0.547,-0.391 0.211,-0.094 0.444,-0.14 0.7,-0.14 0.601,0 1.069,0.229 1.404,0.686 C -0.168,-1.381 0,-0.768 0,0 M 1.624,0.059 C 1.624,-0.512 1.545,-1.034 1.387,-1.506 1.23,-1.979 1.011,-2.383 0.73,-2.717 0.451,-3.052 0.115,-3.313 -0.273,-3.5 c -0.39,-0.187 -0.82,-0.281 -1.293,-0.281 -0.945,0 -1.625,0.34 -2.038,1.019 h -0.03 v -3.78 h -1.595 v 7.738 c 0,0.384 -0.005,0.77 -0.015,1.16 -0.009,0.389 -0.024,0.789 -0.043,1.203 h 1.402 l 0.089,-1.137 h 0.03 c 0.531,0.856 1.338,1.285 2.422,1.285 0.422,0 0.815,-0.089 1.173,-0.266 C 0.189,3.263 0.501,3.015 0.767,2.696 1.033,2.375 1.243,1.992 1.395,1.543 1.548,1.095 1.624,0.601 1.624,0.059"
             inkscape:connector-curvature="0" /></g><g
           transform="translate(104.1613,46.2519)"
           id="g80"><path
             id="path82"
             style="fill:#ffffff;fill-opacity:1;fill-rule:nonzero;stroke:none"
             d="m 0,0 -1.818,-4.977 c -0.432,-1.181 -0.853,-2.148 -1.262,-2.902 -0.409,-0.753 -0.8,-1.302 -1.173,-1.647 -0.552,-0.492 -1.137,-0.792 -1.759,-0.9 l -0.384,1.343 c 0.414,0.109 0.808,0.321 1.182,0.636 0.374,0.315 0.674,0.708 0.902,1.181 0.078,0.157 0.117,0.265 0.117,0.325 0,0.059 -0.03,0.172 -0.088,0.34 L -6.883,0 h 1.757 l 1.359,-4.003 c 0.07,-0.187 0.138,-0.398 0.207,-0.634 0.07,-0.237 0.143,-0.498 0.221,-0.783 h 0.03 c 0.049,0.157 0.104,0.357 0.162,0.598 0.06,0.241 0.138,0.519 0.237,0.834 L -1.699,0 Z"
             inkscape:connector-curvature="0" /></g><g
           transform="translate(106.9237,43.2687)"
           id="g84"><path
             id="path86"
             style="fill:#ffffff;fill-opacity:1;fill-rule:nonzero;stroke:none"
             d="m 0,0 h 0.738 c 0.541,0 0.96,0.098 1.254,0.295 0.295,0.197 0.444,0.438 0.444,0.724 0,0.295 -0.125,0.532 -0.378,0.709 C 1.808,1.905 1.46,1.994 1.017,1.994 0.732,1.994 0.443,1.947 0.155,1.853 -0.137,1.76 -0.404,1.644 -0.651,1.506 L -1.065,2.54 C -0.651,2.766 -0.241,2.922 0.17,3.005 0.577,3.089 0.987,3.13 1.401,3.13 1.728,3.13 2.055,3.098 2.385,3.035 2.712,2.971 3.006,2.862 3.262,2.71 3.518,2.557 3.729,2.357 3.89,2.112 4.053,1.865 4.133,1.56 4.133,1.196 4.133,0.969 4.089,0.77 4,0.598 3.913,0.426 3.794,0.273 3.646,0.141 3.5,0.007 3.334,-0.101 3.152,-0.184 2.971,-0.268 2.783,-0.33 2.599,-0.37 v -0.043 c 0.235,-0.03 0.464,-0.09 0.687,-0.178 0.22,-0.088 0.419,-0.205 0.598,-0.347 0.175,-0.143 0.318,-0.315 0.428,-0.517 0.107,-0.202 0.16,-0.43 0.16,-0.687 0,-0.423 -0.101,-0.777 -0.309,-1.063 C 3.958,-3.49 3.693,-3.717 3.372,-3.884 3.054,-4.052 2.7,-4.172 2.316,-4.246 1.933,-4.32 1.558,-4.357 1.195,-4.357 c -0.443,0 -0.883,0.047 -1.314,0.14 -0.434,0.094 -0.824,0.239 -1.169,0.436 l 0.417,1.049 c 0.255,-0.138 0.547,-0.254 0.877,-0.347 0.33,-0.094 0.666,-0.141 1.011,-0.141 0.541,0 0.958,0.106 1.249,0.318 0.288,0.212 0.434,0.475 0.434,0.79 0,0.207 -0.047,0.381 -0.146,0.524 -0.098,0.143 -0.238,0.259 -0.413,0.347 -0.178,0.089 -0.384,0.15 -0.621,0.185 -0.235,0.035 -0.494,0.052 -0.768,0.052 H 0 Z"
             inkscape:connector-curvature="0" /></g><g
           transform="translate(115.4432,46.2519)"
           id="g88"><path
             id="path90"
             style="fill:#ffffff;fill-opacity:1;fill-rule:nonzero;stroke:none"
             d="m 0,0 v -2.54 c 0,-0.581 -0.009,-1.103 -0.03,-1.566 -0.021,-0.463 -0.044,-0.95 -0.074,-1.462 l 0.03,-0.029 c 0.187,0.374 0.371,0.74 0.553,1.1 0.184,0.359 0.369,0.726 0.556,1.1 L 2.807,0 H 4.874 V -7.178 H 3.366 v 2.541 c 0,0.531 0.015,1.063 0.039,1.594 0.024,0.533 0.05,1.069 0.08,1.61 H 3.411 C 3.244,-1.876 3.078,-2.26 2.908,-2.585 2.742,-2.91 2.575,-3.244 2.409,-3.589 2.102,-4.179 1.799,-4.77 1.499,-5.361 1.199,-5.952 0.88,-6.558 0.547,-7.178 H -1.519 V 0 Z"
             inkscape:connector-curvature="0" /></g><g
           transform="translate(128.7354,46.2519)"
           id="g92"><path
             id="path94"
             style="fill:#ffffff;fill-opacity:1;fill-rule:nonzero;stroke:none"
             d="m 0,0 v -1.314 h -2.186 v -5.864 h -1.567 v 5.864 h -2.17 V 0 Z"
             inkscape:connector-curvature="0" /></g><g
           transform="translate(135.3488,43.4159)"
           id="g96"><path
             id="path98"
             style="fill:#ffffff;fill-opacity:1;fill-rule:nonzero;stroke:none"
             d="m 0,0 c 0,0.561 -0.134,1.017 -0.405,1.366 -0.27,0.35 -0.663,0.525 -1.174,0.525 -0.464,0 -0.856,-0.178 -1.181,-0.532 C -3.084,1.004 -3.271,0.552 -3.322,0 Z M 1.523,-0.413 C 1.523,-0.551 1.517,-0.682 1.508,-0.804 1.499,-0.928 1.484,-1.039 1.463,-1.137 h -4.785 c 0.021,-0.679 0.235,-1.203 0.643,-1.573 0.407,-0.368 0.948,-0.554 1.617,-0.554 0.699,0 1.344,0.113 1.936,0.34 l 0.25,-1.108 c -0.681,-0.295 -1.481,-0.443 -2.409,-0.443 -0.559,0 -1.061,0.087 -1.504,0.259 -0.443,0.172 -0.818,0.416 -1.124,0.731 -0.304,0.315 -0.539,0.694 -0.702,1.137 -0.161,0.443 -0.241,0.94 -0.241,1.492 0,0.551 0.08,1.06 0.241,1.528 0.163,0.468 0.392,0.874 0.687,1.219 0.297,0.344 0.654,0.615 1.07,0.812 0.42,0.197 0.886,0.295 1.398,0.295 0.452,0 0.862,-0.081 1.234,-0.244 C 0.143,2.592 0.458,2.361 0.717,2.061 0.978,1.76 1.178,1.401 1.314,0.983 1.454,0.563 1.523,0.099 1.523,-0.413"
             inkscape:connector-curvature="0" /></g><g
           transform="translate(144.8317,40.1523)"
           id="g100"><path
             id="path102"
             style="fill:#ffffff;fill-opacity:1;fill-rule:nonzero;stroke:none"
             d="m 0,0 c 0.196,-0.02 0.363,-0.034 0.494,-0.044 0.133,-0.01 0.288,-0.015 0.466,-0.015 0.218,0 0.438,0.014 0.664,0.044 0.226,0.029 0.434,0.086 0.621,0.169 0.187,0.082 0.336,0.195 0.449,0.337 0.113,0.142 0.173,0.331 0.173,0.565 0,0.411 -0.185,0.695 -0.548,0.851 C 1.954,2.063 1.463,2.142 0.841,2.142 H 0 Z m 0,3.175 h 0.812 c 0.247,0 0.482,0.017 0.702,0.052 0.223,0.034 0.416,0.089 0.582,0.162 0.17,0.075 0.298,0.173 0.393,0.296 0.092,0.123 0.14,0.273 0.14,0.451 0,0.324 -0.134,0.563 -0.408,0.715 C 1.951,5.004 1.525,5.08 0.946,5.08 0.779,5.08 0.633,5.075 0.509,5.066 0.387,5.056 0.217,5.041 0,5.021 Z M -1.534,6.04 c 0.285,0.049 0.648,0.089 1.091,0.118 C 0,6.188 0.452,6.203 0.916,6.203 1.21,6.203 1.543,6.185 1.912,6.151 2.281,6.117 2.635,6.038 2.968,5.915 3.304,5.792 3.583,5.607 3.809,5.361 4.035,5.115 4.151,4.78 4.151,4.357 4.151,4.14 4.11,3.945 4.032,3.774 3.952,3.601 3.848,3.451 3.714,3.323 3.58,3.195 3.429,3.089 3.256,3.006 3.084,2.922 2.905,2.86 2.718,2.821 L 2.733,2.777 C 3.253,2.688 3.678,2.501 4.003,2.215 4.327,1.93 4.49,1.536 4.49,1.034 4.49,0.532 4.35,0.133 4.077,-0.162 3.8,-0.458 3.461,-0.679 3.057,-0.827 2.652,-0.975 2.227,-1.068 1.778,-1.108 1.332,-1.146 0.931,-1.166 0.577,-1.166 c -0.396,0 -0.782,0.009 -1.16,0.029 -0.38,0.02 -0.696,0.04 -0.951,0.059 z"
             inkscape:connector-curvature="0" /></g></g></g></g></svg>